<mxfile host="Electron" modified="2024-04-20T20:54:52.915Z" agent="Mozilla/5.0 (Windows NT 10.0; Win64; x64) AppleWebKit/537.36 (KHTML, like Gecko) draw.io/24.2.5 Chrome/120.0.6099.109 Electron/28.1.0 Safari/537.36" etag="7aLvoqmeQ_xBt-fXavIP" version="24.2.5" type="device">
  <diagram name="Página-1" id="C7aCnv_AJQlqyrutUBDJ">
    <mxGraphModel dx="1420" dy="830" grid="1" gridSize="10" guides="1" tooltips="1" connect="1" arrows="1" fold="1" page="1" pageScale="1" pageWidth="827" pageHeight="1169" background="#CCE5FF" math="0" shadow="0">
      <root>
        <mxCell id="0" />
        <mxCell id="1" parent="0" />
        <mxCell id="tukN174pklBdGIVOoP3R-1" value="&lt;b style=&quot;font-size: 17px;&quot;&gt;&lt;font style=&quot;font-size: 17px;&quot; color=&quot;#000000&quot; face=&quot;Comic Sans MS&quot;&gt;4 Hacer un programa para que el usuario ingrese un número positivo y que luego&lt;br&gt;se muestre por pantalla los números entre el 1 y el número ingresado por el usuario. Ejemplo. Si el usuario ingresa 15, se mostrarán los números entre el 1 y el 15.&lt;/font&gt;&lt;/b&gt;" style="text;whiteSpace=wrap;html=1;fontFamily=Architects Daughter;fontSource=https%3A%2F%2Ffonts.googleapis.com%2Fcss%3Ffamily%3DArchitects%2BDaughter;" vertex="1" parent="1">
          <mxGeometry x="54" y="10" width="720" height="90" as="geometry" />
        </mxCell>
        <mxCell id="tukN174pklBdGIVOoP3R-35" value="" style="group;aspect=fixed;" vertex="1" connectable="0" parent="1">
          <mxGeometry x="235" y="150" width="260" height="590" as="geometry" />
        </mxCell>
        <mxCell id="tukN174pklBdGIVOoP3R-6" value="" style="group;aspect=fixed;" vertex="1" connectable="0" parent="tukN174pklBdGIVOoP3R-35">
          <mxGeometry x="105" width="50" height="50" as="geometry" />
        </mxCell>
        <mxCell id="tukN174pklBdGIVOoP3R-2" value="" style="strokeWidth=2;html=1;shape=mxgraph.flowchart.start_2;whiteSpace=wrap;rounded=0;labelBackgroundColor=none;strokeColor=#000000;align=center;verticalAlign=middle;fontFamily=Helvetica;fontSize=12;fontColor=default;fillColor=#d5e8d4;" vertex="1" parent="tukN174pklBdGIVOoP3R-6">
          <mxGeometry width="50" height="50" as="geometry" />
        </mxCell>
        <mxCell id="tukN174pklBdGIVOoP3R-4" value="&lt;b&gt;&lt;font color=&quot;#000000&quot; style=&quot;font-size: 22px;&quot; face=&quot;Comic Sans MS&quot;&gt;I&lt;/font&gt;&lt;/b&gt;" style="text;strokeColor=none;align=center;fillColor=none;html=1;verticalAlign=middle;whiteSpace=wrap;rounded=0;fontFamily=Architects Daughter;fontSource=https%3A%2F%2Ffonts.googleapis.com%2Fcss%3Ffamily%3DArchitects%2BDaughter;" vertex="1" parent="tukN174pklBdGIVOoP3R-6">
          <mxGeometry width="50" height="50" as="geometry" />
        </mxCell>
        <mxCell id="tukN174pklBdGIVOoP3R-7" value="" style="group;aspect=fixed;" vertex="1" connectable="0" parent="tukN174pklBdGIVOoP3R-35">
          <mxGeometry x="105" y="540" width="50" height="50" as="geometry" />
        </mxCell>
        <mxCell id="tukN174pklBdGIVOoP3R-3" value="" style="strokeWidth=2;html=1;shape=mxgraph.flowchart.start_2;whiteSpace=wrap;rounded=0;labelBackgroundColor=none;strokeColor=#000000;align=center;verticalAlign=middle;fontFamily=Helvetica;fontSize=12;fontColor=default;fillColor=#d5e8d4;" vertex="1" parent="tukN174pklBdGIVOoP3R-7">
          <mxGeometry width="50" height="50" as="geometry" />
        </mxCell>
        <mxCell id="tukN174pklBdGIVOoP3R-5" value="&lt;b&gt;&lt;font color=&quot;#000000&quot; style=&quot;font-size: 22px;&quot; face=&quot;Comic Sans MS&quot;&gt;F&lt;/font&gt;&lt;/b&gt;" style="text;strokeColor=none;align=center;fillColor=none;html=1;verticalAlign=middle;whiteSpace=wrap;rounded=0;fontFamily=Architects Daughter;fontSource=https://fonts.googleapis.com/css?family=Architects+Daughter;" vertex="1" parent="tukN174pklBdGIVOoP3R-7">
          <mxGeometry width="50" height="50" as="geometry" />
        </mxCell>
        <mxCell id="tukN174pklBdGIVOoP3R-10" value="" style="group;aspect=fixed;" vertex="1" connectable="0" parent="tukN174pklBdGIVOoP3R-35">
          <mxGeometry x="40" y="80" width="180" height="40" as="geometry" />
        </mxCell>
        <mxCell id="tukN174pklBdGIVOoP3R-8" value="" style="rounded=0;whiteSpace=wrap;html=1;labelBackgroundColor=none;strokeColor=#0f100e;strokeWidth=2;align=center;verticalAlign=middle;fontFamily=Helvetica;fontSize=12;fontColor=default;fillColor=#d5e8d4;" vertex="1" parent="tukN174pklBdGIVOoP3R-10">
          <mxGeometry width="180" height="40" as="geometry" />
        </mxCell>
        <mxCell id="tukN174pklBdGIVOoP3R-9" value="&lt;b&gt;&lt;font color=&quot;#000000&quot; style=&quot;font-size: 17px;&quot; face=&quot;Comic Sans MS&quot;&gt;int num1 = 1, num2&lt;/font&gt;&lt;/b&gt;" style="text;strokeColor=none;align=center;fillColor=none;html=1;verticalAlign=middle;whiteSpace=wrap;rounded=0;fontFamily=Architects Daughter;fontSource=https%3A%2F%2Ffonts.googleapis.com%2Fcss%3Ffamily%3DArchitects%2BDaughter;" vertex="1" parent="tukN174pklBdGIVOoP3R-10">
          <mxGeometry x="7" y="5" width="166" height="30" as="geometry" />
        </mxCell>
        <mxCell id="tukN174pklBdGIVOoP3R-30" value="" style="line;strokeWidth=2;direction=south;html=1;hachureGap=4;fontFamily=Architects Daughter;fontSource=https://fonts.googleapis.com/css?family=Architects+Daughter;strokeColor=#000000;" vertex="1" parent="tukN174pklBdGIVOoP3R-10">
          <mxGeometry x="85" y="-30" width="10" height="30" as="geometry" />
        </mxCell>
        <mxCell id="tukN174pklBdGIVOoP3R-13" value="" style="group;aspect=fixed;" vertex="1" connectable="0" parent="tukN174pklBdGIVOoP3R-35">
          <mxGeometry x="65" y="160" width="130" height="40" as="geometry" />
        </mxCell>
        <mxCell id="tukN174pklBdGIVOoP3R-11" value="" style="shape=trapezoid;perimeter=trapezoidPerimeter;whiteSpace=wrap;html=1;fixedSize=1;rounded=0;labelBackgroundColor=none;strokeColor=#121211;strokeWidth=2;align=center;verticalAlign=middle;fontFamily=Helvetica;fontSize=12;fontColor=default;fillColor=#d5e8d4;direction=west;container=0;" vertex="1" parent="tukN174pklBdGIVOoP3R-13">
          <mxGeometry width="130" height="40" as="geometry">
            <mxRectangle x="-1020" y="-650" width="50" height="40" as="alternateBounds" />
          </mxGeometry>
        </mxCell>
        <mxCell id="tukN174pklBdGIVOoP3R-12" value="&lt;b&gt;&lt;font style=&quot;font-size: 18px;&quot; color=&quot;#000000&quot; face=&quot;Comic Sans MS&quot;&gt;num2&lt;/font&gt;&lt;/b&gt;" style="text;strokeColor=none;align=center;fillColor=none;html=1;verticalAlign=middle;whiteSpace=wrap;rounded=0;fontFamily=Architects Daughter;fontSource=https%3A%2F%2Ffonts.googleapis.com%2Fcss%3Ffamily%3DArchitects%2BDaughter;container=0;" vertex="1" parent="tukN174pklBdGIVOoP3R-13">
          <mxGeometry x="19.5" width="95" height="40" as="geometry" />
        </mxCell>
        <mxCell id="tukN174pklBdGIVOoP3R-14" value="" style="group;aspect=fixed;strokeWidth=2;strokeColor=#080808;fillColor=none;" vertex="1" connectable="0" parent="tukN174pklBdGIVOoP3R-35">
          <mxGeometry y="240" width="260" height="260" as="geometry" />
        </mxCell>
        <mxCell id="tukN174pklBdGIVOoP3R-15" value="" style="whiteSpace=wrap;html=1;aspect=fixed;rounded=0;labelBackgroundColor=none;strokeColor=#1A1A1A;strokeWidth=3;align=center;verticalAlign=middle;fontFamily=Helvetica;fontSize=12;fontColor=default;fillColor=#d5e8d4;" vertex="1" parent="tukN174pklBdGIVOoP3R-14">
          <mxGeometry width="260" height="260" as="geometry" />
        </mxCell>
        <mxCell id="tukN174pklBdGIVOoP3R-16" value="" style="edgeStyle=none;orthogonalLoop=1;jettySize=auto;html=1;rounded=0;strokeColor=#000000;fontFamily=Helvetica;fontSize=12;fontColor=default;fillColor=#B2C9AB;startArrow=none;startFill=0;endArrow=none;endFill=0;endSize=7;strokeWidth=2;" edge="1" parent="tukN174pklBdGIVOoP3R-14">
          <mxGeometry width="80" relative="1" as="geometry">
            <mxPoint x="260" y="41.935483870967744" as="sourcePoint" />
            <mxPoint y="41.935483870967744" as="targetPoint" />
            <Array as="points" />
          </mxGeometry>
        </mxCell>
        <mxCell id="tukN174pklBdGIVOoP3R-17" value="&lt;b&gt;&lt;font style=&quot;font-size: 17px;&quot; color=&quot;#000000&quot; face=&quot;Comic Sans MS&quot;&gt;num1 &amp;lt;= num2&lt;/font&gt;&lt;/b&gt;" style="text;strokeColor=none;align=center;fillColor=none;html=1;verticalAlign=middle;whiteSpace=wrap;rounded=0;fontFamily=Architects Daughter;fontSource=https%3A%2F%2Ffonts.googleapis.com%2Fcss%3Ffamily%3DArchitects%2BDaughter;" vertex="1" parent="tukN174pklBdGIVOoP3R-14">
          <mxGeometry x="60" width="140" height="40" as="geometry" />
        </mxCell>
        <mxCell id="tukN174pklBdGIVOoP3R-24" value="" style="group;aspect=fixed;" vertex="1" connectable="0" parent="tukN174pklBdGIVOoP3R-14">
          <mxGeometry x="65" y="80" width="130" height="40" as="geometry" />
        </mxCell>
        <mxCell id="tukN174pklBdGIVOoP3R-18" value="" style="shape=trapezoid;perimeter=trapezoidPerimeter;whiteSpace=wrap;html=1;fixedSize=1;rounded=0;labelBackgroundColor=none;strokeColor=#0F140C;strokeWidth=2;align=center;verticalAlign=middle;fontFamily=Helvetica;fontSize=12;fontColor=default;fillColor=#d5e8d4;" vertex="1" parent="tukN174pklBdGIVOoP3R-24">
          <mxGeometry width="130" height="40" as="geometry" />
        </mxCell>
        <mxCell id="tukN174pklBdGIVOoP3R-23" value="&lt;font color=&quot;#000000&quot; size=&quot;1&quot; face=&quot;Comic Sans MS&quot;&gt;&lt;b style=&quot;font-size: 18px;&quot;&gt;num1&lt;/b&gt;&lt;/font&gt;" style="text;strokeColor=none;align=center;fillColor=none;html=1;verticalAlign=middle;whiteSpace=wrap;rounded=0;fontFamily=Architects Daughter;fontSource=https%3A%2F%2Ffonts.googleapis.com%2Fcss%3Ffamily%3DArchitects%2BDaughter;" vertex="1" parent="tukN174pklBdGIVOoP3R-24">
          <mxGeometry x="35" y="5" width="60" height="30" as="geometry" />
        </mxCell>
        <mxCell id="tukN174pklBdGIVOoP3R-29" value="" style="group;aspect=fixed;" vertex="1" connectable="0" parent="tukN174pklBdGIVOoP3R-14">
          <mxGeometry x="70" y="155" width="120" height="40" as="geometry" />
        </mxCell>
        <mxCell id="tukN174pklBdGIVOoP3R-19" value="" style="rounded=0;whiteSpace=wrap;html=1;labelBackgroundColor=none;strokeColor=#0f100e;strokeWidth=2;align=center;verticalAlign=middle;fontFamily=Helvetica;fontSize=12;fontColor=default;fillColor=#d5e8d4;" vertex="1" parent="tukN174pklBdGIVOoP3R-29">
          <mxGeometry width="120" height="40" as="geometry" />
        </mxCell>
        <mxCell id="tukN174pklBdGIVOoP3R-28" value="&lt;font color=&quot;#000000&quot; size=&quot;1&quot; face=&quot;Comic Sans MS&quot;&gt;&lt;b style=&quot;font-size: 18px;&quot;&gt;num1++&lt;/b&gt;&lt;/font&gt;" style="text;strokeColor=none;align=center;fillColor=none;html=1;verticalAlign=middle;whiteSpace=wrap;rounded=0;fontFamily=Architects Daughter;fontSource=https://fonts.googleapis.com/css?family=Architects+Daughter;" vertex="1" parent="tukN174pklBdGIVOoP3R-29">
          <mxGeometry x="17" y="5" width="90" height="30" as="geometry" />
        </mxCell>
        <mxCell id="tukN174pklBdGIVOoP3R-31" value="" style="line;strokeWidth=2;direction=south;html=1;hachureGap=4;fontFamily=Architects Daughter;fontSource=https://fonts.googleapis.com/css?family=Architects+Daughter;strokeColor=#000000;" vertex="1" parent="tukN174pklBdGIVOoP3R-14">
          <mxGeometry x="125" y="120" width="10" height="40" as="geometry" />
        </mxCell>
        <mxCell id="tukN174pklBdGIVOoP3R-32" value="" style="line;strokeWidth=2;direction=south;html=1;hachureGap=4;fontFamily=Architects Daughter;fontSource=https://fonts.googleapis.com/css?family=Architects+Daughter;strokeColor=#000000;" vertex="1" parent="tukN174pklBdGIVOoP3R-35">
          <mxGeometry x="125" y="120" width="10" height="40" as="geometry" />
        </mxCell>
        <mxCell id="tukN174pklBdGIVOoP3R-33" value="" style="line;strokeWidth=2;direction=south;html=1;hachureGap=4;fontFamily=Architects Daughter;fontSource=https://fonts.googleapis.com/css?family=Architects+Daughter;strokeColor=#000000;" vertex="1" parent="tukN174pklBdGIVOoP3R-35">
          <mxGeometry x="125" y="500" width="10" height="40" as="geometry" />
        </mxCell>
        <mxCell id="tukN174pklBdGIVOoP3R-34" value="" style="line;strokeWidth=2;direction=south;html=1;hachureGap=4;fontFamily=Architects Daughter;fontSource=https://fonts.googleapis.com/css?family=Architects+Daughter;strokeColor=#000000;" vertex="1" parent="tukN174pklBdGIVOoP3R-35">
          <mxGeometry x="125" y="200" width="10" height="40" as="geometry" />
        </mxCell>
      </root>
    </mxGraphModel>
  </diagram>
</mxfile>
